<svg width="164" height="149" viewBox="0 0 164 149" fill="none" xmlns="http://www.w3.org/2000/svg">
<path d="M131.589 149L164 75.3765L129.549 103.127L116.032 149H131.589Z" fill="#3C935C"/>
<path d="M0 75.3765L32.4111 149H47.9684L34.4507 103.127L0 75.3765Z" fill="#3C935C"/>
<path d="M109.283 119.452L129.549 103.127L149.091 36.8117L105.133 101.284L109.283 119.452Z" fill="#49A069"/>
<path d="M34.4507 103.127L54.7171 119.452L58.8666 101.284L14.9091 36.8119L34.4507 103.127Z" fill="#49A069"/>
<path d="M82 135.214L105.133 101.284L82 0L58.8666 101.284L82 135.214Z" fill="#4FA46D"/>
<path d="M58.8666 101.284L54.7171 119.452L79.265 139.226L82 135.214L58.8666 101.284Z" fill="#3C935C"/>
<path d="M109.283 119.452L105.133 101.284L82 135.214L84.7351 139.226L109.283 119.452Z" fill="#3C935C"/>
<path d="M82 141.429L72.6008 149H91.3992L82 141.429Z" fill="#287C48"/>
<path d="M72.6008 149L82 141.429L79.265 139.226L72.6008 149Z" fill="#287C48"/>
<path d="M34.4507 103.127L47.9684 149L54.7171 119.452L34.4507 103.127Z" fill="#29894F"/>
<path d="M116.032 149L129.549 103.127L109.283 119.452L116.032 149Z" fill="#29894F"/>
<path d="M82 141.429L84.7351 139.226L82 135.214L79.265 139.226L82 141.429Z" fill="#258247"/>
<path d="M91.3992 149H116.032L109.283 119.452L84.7351 139.226L91.3992 149Z" fill="#29894F"/>
<path d="M47.9684 149H72.6008L79.265 139.226L54.7171 119.452L47.9684 149Z" fill="#29894F"/>
<path d="M82 141.429L91.3992 149L84.7351 139.226L82 141.429Z" fill="#287C48"/>
</svg>
