<svg width="87" height="26" viewBox="0 0 87 26" fill="none" xmlns="http://www.w3.org/2000/svg">
<path d="M2.00977 4.60547C1.79492 4.60547 1.6875 4.51758 1.6875 4.3418V3.86133C1.6875 3.68555 1.79492 3.59766 2.00977 3.59766H8.20898C8.42383 3.59766 8.53125 3.68555 8.53125 3.86133V4.3418C8.53125 4.51758 8.42383 4.60547 8.20898 4.60547H5.67188V11.6777C5.67188 11.8926 5.57422 12 5.37891 12H4.83984C4.64453 12 4.54688 11.8926 4.54688 11.6777V4.60547H2.00977ZM9.28125 7.79883C9.28125 6.43164 9.61719 5.36133 10.2891 4.58789C10.9648 3.81055 11.9375 3.42188 13.207 3.42188C14.4766 3.42188 15.4473 3.81055 16.1191 4.58789C16.7949 5.36133 17.1328 6.43164 17.1328 7.79883C17.1328 9.16602 16.7949 10.2383 16.1191 11.0156C15.4473 11.7891 14.4766 12.1758 13.207 12.1758C11.9375 12.1758 10.9648 11.7891 10.2891 11.0156C9.61719 10.2383 9.28125 9.16602 9.28125 7.79883ZM10.4824 7.79883C10.4824 8.89258 10.707 9.74414 11.1562 10.3535C11.6055 10.959 12.2891 11.2617 13.207 11.2617C14.125 11.2617 14.8086 10.959 15.2578 10.3535C15.707 9.74414 15.9316 8.89258 15.9316 7.79883C15.9316 6.70508 15.707 5.85547 15.2578 5.25C14.8086 4.64062 14.125 4.33594 13.207 4.33594C12.2891 4.33594 11.6055 4.64062 11.1562 5.25C10.707 5.85547 10.4824 6.70508 10.4824 7.79883ZM18.668 8.79492V3.91992C18.668 3.70508 18.7656 3.59766 18.9609 3.59766H19.5C19.6953 3.59766 19.793 3.70508 19.793 3.91992V8.61914C19.793 9.71289 19.9473 10.4277 20.2559 10.7637C20.5684 11.0957 21.0762 11.2617 21.7793 11.2617C22.4824 11.2617 22.9883 11.0957 23.2969 10.7637C23.6094 10.4277 23.7656 9.71289 23.7656 8.61914V3.91992C23.7656 3.70508 23.8633 3.59766 24.0586 3.59766H24.5977C24.793 3.59766 24.8906 3.70508 24.8906 3.91992V8.79492C24.8906 10.0332 24.6055 10.9062 24.0352 11.4141C23.4688 11.9219 22.7168 12.1758 21.7793 12.1758C20.8418 12.1758 20.0879 11.9219 19.5176 11.4141C18.9512 10.9062 18.668 10.0332 18.668 8.79492ZM26.4258 7.79883C26.4258 6.43164 26.7637 5.36133 27.4395 4.58789C28.1191 3.81055 29.0938 3.42188 30.3633 3.42188C31.1055 3.42188 31.7188 3.54883 32.2031 3.80273C32.6875 4.05273 33.0352 4.39648 33.2461 4.83398C33.3555 5.06055 33.3379 5.2168 33.1934 5.30273L32.7305 5.57227C32.5742 5.66211 32.4355 5.58789 32.3145 5.34961C32.1855 5.10352 31.9746 4.87305 31.6816 4.6582C31.3887 4.44336 30.9688 4.33594 30.4219 4.33594C29.4453 4.33594 28.7344 4.64062 28.2891 5.25C27.8477 5.85547 27.627 6.70508 27.627 7.79883C27.627 8.89258 27.8477 9.74414 28.2891 10.3535C28.7344 10.959 29.4453 11.2617 30.4219 11.2617C30.9844 11.2617 31.4336 11.1328 31.7695 10.875C32.1094 10.6172 32.3555 10.3477 32.5078 10.0664C32.6289 9.83984 32.7695 9.77148 32.9297 9.86133L33.416 10.1367C33.5566 10.2188 33.5684 10.375 33.4512 10.6055C33.2207 11.0547 32.8457 11.4297 32.3262 11.7305C31.8066 12.0273 31.1523 12.1758 30.3633 12.1758C29.0938 12.1758 28.1191 11.7891 27.4395 11.0156C26.7637 10.2383 26.4258 9.16602 26.4258 7.79883ZM35.3906 12C35.1953 12 35.0977 11.8926 35.0977 11.6777V3.91992C35.0977 3.70508 35.1953 3.59766 35.3906 3.59766H35.9297C36.125 3.59766 36.2227 3.70508 36.2227 3.91992V7.14844H40.3125V3.91992C40.3125 3.70508 40.4102 3.59766 40.6055 3.59766H41.1445C41.3398 3.59766 41.4375 3.70508 41.4375 3.91992V11.6777C41.4375 11.8926 41.3398 12 41.1445 12H40.6055C40.4102 12 40.3125 11.8926 40.3125 11.6777V8.10938H36.2227V11.6777C36.2227 11.8926 36.125 12 35.9297 12H35.3906Z" fill="#525252"/>
<path d="M46.9688 7.79883C46.9688 6.43164 47.3223 5.36133 48.0293 4.58789C48.7363 3.81055 49.7188 3.42188 50.9766 3.42188C51.7305 3.42188 52.3457 3.55273 52.8223 3.81445C53.2988 4.07227 53.6484 4.37695 53.8711 4.72852C54.0078 4.94727 54.0059 5.10547 53.8652 5.20312L53.4258 5.50781C53.2812 5.60938 53.1367 5.54883 52.9922 5.32617C52.875 5.15039 52.6543 4.94141 52.3301 4.69922C52.0059 4.45703 51.5742 4.33594 51.0352 4.33594C50.0781 4.33594 49.3613 4.64062 48.8848 5.25C48.4082 5.85547 48.1699 6.70508 48.1699 7.79883C48.1699 8.89258 48.4023 9.74414 48.8672 10.3535C49.332 10.959 50.0742 11.2617 51.0938 11.2617C51.6016 11.2617 52.043 11.2012 52.418 11.0801C52.7969 10.9551 53.0625 10.7832 53.2148 10.5645V9.01172H51.4746C51.2598 9.01172 51.1523 8.92383 51.1523 8.74805V8.31445C51.1523 8.13867 51.2598 8.05078 51.4746 8.05078H54.0176C54.2324 8.05078 54.3398 8.13867 54.3398 8.31445V11.0801C53.8633 11.4277 53.3867 11.6973 52.9102 11.8887C52.4336 12.0801 51.8086 12.1758 51.0352 12.1758C49.7461 12.1758 48.7461 11.7891 48.0352 11.0156C47.3242 10.2383 46.9688 9.16602 46.9688 7.79883ZM56.332 12C56.1367 12 56.0391 11.8926 56.0391 11.6777V3.91992C56.0391 3.70508 56.1367 3.59766 56.332 3.59766H59.1621C60.291 3.59766 61.1074 3.80859 61.6113 4.23047C62.1191 4.65234 62.373 5.20898 62.373 5.90039C62.373 6.50977 62.168 7.02148 61.7578 7.43555C61.3516 7.84961 60.7715 8.08789 60.0176 8.15039V8.16211C60.416 8.45898 60.6797 8.68555 60.8086 8.8418C60.9375 8.99414 61.082 9.20117 61.2422 9.46289L62.5664 11.6133C62.7266 11.8711 62.6914 12 62.4609 12H61.793C61.6094 12 61.4727 11.9238 61.3828 11.7715L60.1641 9.67969C59.9883 9.37891 59.7363 9.08398 59.4082 8.79492C59.0801 8.50586 58.6719 8.36133 58.1836 8.36133H57.1641V11.6777C57.1641 11.8926 57.0664 12 56.8711 12H56.332ZM57.1641 7.40039H58.8574C59.6191 7.40039 60.2051 7.30078 60.6152 7.10156C61.0254 6.89844 61.2305 6.47461 61.2305 5.83008C61.2305 5.33789 61.043 5.00391 60.668 4.82812C60.293 4.64844 59.7832 4.55859 59.1387 4.55859H57.1641V7.40039ZM63.7852 12C63.582 12 63.5293 11.8711 63.627 11.6133L66.5449 3.95508C66.6348 3.7168 66.7637 3.59766 66.9316 3.59766H67.752C67.9199 3.59766 68.0488 3.7168 68.1387 3.95508L71.0566 11.6133C71.1543 11.8711 71.1016 12 70.8984 12H70.3008C70.0938 12 69.9531 11.9043 69.8789 11.7129L69.1465 9.77344H65.5371L64.8047 11.7129C64.7305 11.9043 64.5898 12 64.3828 12H63.7852ZM65.9062 8.8125H68.7773L67.8809 6.46875C67.7988 6.25 67.7168 6.00781 67.6348 5.74219C67.5566 5.47656 67.4629 5.09961 67.3535 4.61133H67.3301C67.2207 5.09961 67.125 5.47656 67.043 5.74219C66.9648 6.00781 66.8848 6.25 66.8027 6.46875L65.9062 8.8125ZM72.1523 11.3672C71.9453 11.1797 71.8906 11.0156 71.9883 10.875L72.293 10.4355C72.3984 10.2832 72.5684 10.2949 72.8027 10.4707C73.1113 10.7012 73.4316 10.8906 73.7637 11.0391C74.0996 11.1875 74.5059 11.2617 74.9824 11.2617C75.334 11.2617 75.6309 11.209 75.873 11.1035C76.1152 10.998 76.3086 10.8477 76.4531 10.6523C76.6016 10.4531 76.6758 10.2129 76.6758 9.93164C76.6758 9.72852 76.6445 9.54102 76.582 9.36914C76.5234 9.19336 76.4277 9.04688 76.2949 8.92969C76.1621 8.8125 76.0234 8.7207 75.8789 8.6543C75.6406 8.54492 75.2832 8.41797 74.8066 8.27344C74.334 8.12891 73.9199 7.97266 73.5645 7.80469C73.2129 7.63672 72.9316 7.43359 72.7207 7.19531C72.5137 6.95703 72.375 6.71289 72.3047 6.46289C72.2383 6.20898 72.2051 5.91992 72.2051 5.5957C72.2051 5.09961 72.3496 4.67188 72.6387 4.3125C72.9277 3.95313 73.2812 3.71484 73.6992 3.59766C74.1211 3.48047 74.5488 3.42188 74.9824 3.42188C75.4785 3.42188 75.9102 3.48633 76.2773 3.61523C76.6445 3.74414 76.9727 3.91211 77.2617 4.11914C77.4648 4.26367 77.5117 4.41602 77.4023 4.57617L77.1035 5.00391C77.0137 5.13281 76.8379 5.10547 76.5762 4.92188C76.377 4.78125 76.1328 4.65039 75.8438 4.5293C75.5586 4.4043 75.2754 4.3418 74.9941 4.3418C74.6348 4.3418 74.3359 4.38477 74.0977 4.4707C73.8594 4.55273 73.6719 4.69336 73.5352 4.89258C73.3984 5.0918 73.3301 5.32227 73.3301 5.58398C73.3301 5.74805 73.3457 5.90039 73.377 6.04102C73.4082 6.17773 73.4883 6.31836 73.6172 6.46289C73.7461 6.60742 73.9023 6.71875 74.0859 6.79688C74.332 6.90234 74.7129 7.02734 75.2285 7.17188C75.748 7.3125 76.2012 7.48633 76.5879 7.69336C76.9473 7.88477 77.2051 8.08594 77.3613 8.29688C77.5215 8.50391 77.6445 8.73047 77.7305 8.97656C77.8203 9.21875 77.8652 9.49219 77.8652 9.79688C77.8652 10.3516 77.7227 10.8145 77.4375 11.1855C77.1523 11.5566 76.8145 11.8145 76.4238 11.959C76.0332 12.1035 75.543 12.1758 74.9531 12.1758C74.2461 12.1758 73.6602 12.0938 73.1953 11.9297C72.7305 11.7656 72.3828 11.5781 72.1523 11.3672ZM79.3242 11.3672C79.1172 11.1797 79.0625 11.0156 79.1602 10.875L79.4648 10.4355C79.5703 10.2832 79.7402 10.2949 79.9746 10.4707C80.2832 10.7012 80.6035 10.8906 80.9355 11.0391C81.2715 11.1875 81.6777 11.2617 82.1543 11.2617C82.5059 11.2617 82.8027 11.209 83.0449 11.1035C83.2871 10.998 83.4805 10.8477 83.625 10.6523C83.7734 10.4531 83.8477 10.2129 83.8477 9.93164C83.8477 9.72852 83.8164 9.54102 83.7539 9.36914C83.6953 9.19336 83.5996 9.04688 83.4668 8.92969C83.334 8.8125 83.1953 8.7207 83.0508 8.6543C82.8125 8.54492 82.4551 8.41797 81.9785 8.27344C81.5059 8.12891 81.0918 7.97266 80.7363 7.80469C80.3848 7.63672 80.1035 7.43359 79.8926 7.19531C79.6855 6.95703 79.5469 6.71289 79.4766 6.46289C79.4102 6.20898 79.377 5.91992 79.377 5.5957C79.377 5.09961 79.5215 4.67188 79.8105 4.3125C80.0996 3.95313 80.4531 3.71484 80.8711 3.59766C81.293 3.48047 81.7207 3.42188 82.1543 3.42188C82.6504 3.42188 83.082 3.48633 83.4492 3.61523C83.8164 3.74414 84.1445 3.91211 84.4336 4.11914C84.6367 4.26367 84.6836 4.41602 84.5742 4.57617L84.2754 5.00391C84.1855 5.13281 84.0098 5.10547 83.748 4.92188C83.5488 4.78125 83.3047 4.65039 83.0156 4.5293C82.7305 4.4043 82.4473 4.3418 82.166 4.3418C81.8066 4.3418 81.5078 4.38477 81.2695 4.4707C81.0312 4.55273 80.8438 4.69336 80.707 4.89258C80.5703 5.0918 80.502 5.32227 80.502 5.58398C80.502 5.74805 80.5176 5.90039 80.5488 6.04102C80.5801 6.17773 80.6602 6.31836 80.7891 6.46289C80.918 6.60742 81.0742 6.71875 81.2578 6.79688C81.5039 6.90234 81.8848 7.02734 82.4004 7.17188C82.9199 7.3125 83.373 7.48633 83.7598 7.69336C84.1191 7.88477 84.377 8.08594 84.5332 8.29688C84.6934 8.50391 84.8164 8.73047 84.9023 8.97656C84.9922 9.21875 85.0371 9.49219 85.0371 9.79688C85.0371 10.3516 84.8945 10.8145 84.6094 11.1855C84.3242 11.5566 83.9863 11.8145 83.5957 11.959C83.2051 12.1035 82.7148 12.1758 82.125 12.1758C81.418 12.1758 80.832 12.0938 80.3672 11.9297C79.9023 11.7656 79.5547 11.5781 79.3242 11.3672Z" fill="#A9C46C"/>
<path d="M2.24531 23.3672C2.03828 23.1797 1.98359 23.0156 2.08125 22.875L2.38594 22.4355C2.49141 22.2832 2.66133 22.2949 2.8957 22.4707C3.2043 22.7012 3.52461 22.8906 3.85664 23.0391C4.19258 23.1875 4.59883 23.2617 5.07539 23.2617C5.42695 23.2617 5.72383 23.209 5.96601 23.1035C6.2082 22.998 6.40156 22.8477 6.54609 22.6523C6.69453 22.4531 6.76875 22.2129 6.76875 21.9316C6.76875 21.7285 6.7375 21.541 6.675 21.3691C6.61641 21.1934 6.5207 21.0469 6.38789 20.9297C6.25508 20.8125 6.11641 20.7207 5.97187 20.6543C5.73359 20.5449 5.37617 20.418 4.89961 20.2734C4.42695 20.1289 4.01289 19.9727 3.65742 19.8047C3.30586 19.6367 3.02461 19.4336 2.81367 19.1953C2.60664 18.957 2.46797 18.7129 2.39766 18.4629C2.33125 18.209 2.29805 17.9199 2.29805 17.5957C2.29805 17.0996 2.44258 16.6719 2.73164 16.3125C3.0207 15.9531 3.37422 15.7148 3.79219 15.5977C4.21406 15.4805 4.6418 15.4219 5.07539 15.4219C5.57148 15.4219 6.00312 15.4863 6.37031 15.6152C6.7375 15.7441 7.06562 15.9121 7.35469 16.1191C7.55781 16.2637 7.60469 16.416 7.49531 16.5762L7.19648 17.0039C7.10664 17.1328 6.93086 17.1055 6.66914 16.9219C6.46992 16.7812 6.22578 16.6504 5.93672 16.5293C5.65156 16.4043 5.36836 16.3418 5.08711 16.3418C4.72773 16.3418 4.42891 16.3848 4.19062 16.4707C3.95234 16.5527 3.76484 16.6934 3.62812 16.8926C3.49141 17.0918 3.42305 17.3223 3.42305 17.584C3.42305 17.748 3.43867 17.9004 3.46992 18.041C3.50117 18.1777 3.58125 18.3184 3.71016 18.4629C3.83906 18.6074 3.99531 18.7188 4.17891 18.7969C4.425 18.9023 4.80586 19.0273 5.32148 19.1719C5.84101 19.3125 6.29414 19.4863 6.68086 19.6934C7.04023 19.8848 7.29805 20.0859 7.4543 20.2969C7.61445 20.5039 7.7375 20.7305 7.82344 20.9766C7.91328 21.2188 7.9582 21.4922 7.9582 21.7969C7.9582 22.3516 7.81562 22.8145 7.53047 23.1855C7.24531 23.5566 6.90742 23.8145 6.5168 23.959C6.12617 24.1035 5.63594 24.1758 5.04609 24.1758C4.33906 24.1758 3.75312 24.0938 3.28828 23.9297C2.82344 23.7656 2.47578 23.5781 2.24531 23.3672ZM10.7836 19.7988C10.7836 18.4316 11.1215 17.3613 11.7973 16.5879C12.477 15.8105 13.4516 15.4219 14.7211 15.4219C15.4633 15.4219 16.0766 15.5488 16.5609 15.8027C17.0453 16.0527 17.393 16.3965 17.6039 16.834C17.7133 17.0605 17.6957 17.2168 17.5512 17.3027L17.0883 17.5723C16.932 17.6621 16.7934 17.5879 16.6723 17.3496C16.5434 17.1035 16.3324 16.873 16.0395 16.6582C15.7465 16.4434 15.3266 16.3359 14.7797 16.3359C13.8031 16.3359 13.0922 16.6406 12.6469 17.25C12.2055 17.8555 11.9848 18.7051 11.9848 19.7988C11.9848 20.8926 12.2055 21.7441 12.6469 22.3535C13.0922 22.959 13.8031 23.2617 14.7797 23.2617C15.3422 23.2617 15.7914 23.1328 16.1273 22.875C16.4672 22.6172 16.7133 22.3477 16.8656 22.0664C16.9867 21.8398 17.1273 21.7715 17.2875 21.8613L17.7738 22.1367C17.9145 22.2188 17.9262 22.375 17.809 22.6055C17.5785 23.0547 17.2035 23.4297 16.684 23.7305C16.1645 24.0273 15.5102 24.1758 14.7211 24.1758C13.4516 24.1758 12.477 23.7891 11.7973 23.0156C11.1215 22.2383 10.7836 21.166 10.7836 19.7988ZM21.5484 24C21.3531 24 21.2555 23.8926 21.2555 23.6777V15.9199C21.2555 15.7051 21.3531 15.5977 21.5484 15.5977H22.0875C22.2828 15.5977 22.3805 15.7051 22.3805 15.9199V19.1484H26.4703V15.9199C26.4703 15.7051 26.568 15.5977 26.7633 15.5977H27.3023C27.4977 15.5977 27.5953 15.7051 27.5953 15.9199V23.6777C27.5953 23.8926 27.4977 24 27.3023 24H26.7633C26.568 24 26.4703 23.8926 26.4703 23.6777V20.1094H22.3805V23.6777C22.3805 23.8926 22.2828 24 22.0875 24H21.5484ZM31.6805 24C31.4852 24 31.3875 23.8926 31.3875 23.6777V15.9199C31.3875 15.7051 31.4852 15.5977 31.6805 15.5977H36.8074C37.0223 15.5977 37.1297 15.6855 37.1297 15.8613V16.2949C37.1297 16.4707 37.0223 16.5586 36.8074 16.5586H32.5125V19.1602H36.4559C36.6707 19.1602 36.7781 19.248 36.7781 19.4238V19.8574C36.7781 20.0332 36.6707 20.1211 36.4559 20.1211H32.5125V23.0391H36.9832C37.198 23.0391 37.3055 23.127 37.3055 23.3027V23.7363C37.3055 23.9121 37.198 24 36.9832 24H31.6805ZM40.9219 24C40.7266 24 40.6289 23.8926 40.6289 23.6777V15.9199C40.6289 15.7051 40.7266 15.5977 40.9219 15.5977H43.084C44.7402 15.5977 45.8906 15.9648 46.5352 16.6992C47.1836 17.4297 47.5078 18.459 47.5078 19.7871C47.5078 21.1152 47.1836 22.1504 46.5352 22.8926C45.8906 23.6309 44.7402 24 43.084 24H40.9219ZM41.7539 23.0391H43.0312C44.3203 23.0391 45.1875 22.7656 45.6328 22.2188C46.082 21.6719 46.3066 20.8613 46.3066 19.7871C46.3066 18.7129 46.082 17.9043 45.6328 17.3613C45.1875 16.8184 44.3203 16.5469 43.0312 16.5469H41.7539V23.0391ZM50.843 20.7949V15.9199C50.843 15.7051 50.9406 15.5977 51.1359 15.5977H51.675C51.8703 15.5977 51.968 15.7051 51.968 15.9199V20.6191C51.968 21.7129 52.1223 22.4277 52.4309 22.7637C52.7434 23.0957 53.2512 23.2617 53.9543 23.2617C54.6574 23.2617 55.1633 23.0957 55.4719 22.7637C55.7844 22.4277 55.9406 21.7129 55.9406 20.6191V15.9199C55.9406 15.7051 56.0383 15.5977 56.2336 15.5977H56.7727C56.968 15.5977 57.0656 15.7051 57.0656 15.9199V20.7949C57.0656 22.0332 56.7805 22.9062 56.2102 23.4141C55.6437 23.9219 54.8918 24.1758 53.9543 24.1758C53.0168 24.1758 52.2629 23.9219 51.6926 23.4141C51.1262 22.9062 50.843 22.0332 50.843 20.7949ZM61.1508 24C60.9555 24 60.8578 23.8926 60.8578 23.6777V15.9199C60.8578 15.7051 60.9555 15.5977 61.1508 15.5977H61.6898C61.8852 15.5977 61.9828 15.7051 61.9828 15.9199V23.0391H65.8676C66.0824 23.0391 66.1898 23.127 66.1898 23.3027V23.7363C66.1898 23.9121 66.0824 24 65.8676 24H61.1508ZM69.607 24C69.4117 24 69.3141 23.8926 69.3141 23.6777V15.9199C69.3141 15.7051 69.4117 15.5977 69.607 15.5977H74.734C74.9488 15.5977 75.0562 15.6855 75.0562 15.8613V16.2949C75.0562 16.4707 74.9488 16.5586 74.734 16.5586H70.4391V19.1602H74.3824C74.5973 19.1602 74.7047 19.248 74.7047 19.4238V19.8574C74.7047 20.0332 74.5973 20.1211 74.3824 20.1211H70.4391V23.0391H74.9098C75.1246 23.0391 75.232 23.127 75.232 23.3027V23.7363C75.232 23.9121 75.1246 24 74.9098 24H69.607ZM78.8484 24C78.6531 24 78.5555 23.8926 78.5555 23.6777V15.9199C78.5555 15.7051 78.6531 15.5977 78.8484 15.5977H81.6785C82.8074 15.5977 83.6238 15.8086 84.1277 16.2305C84.6355 16.6523 84.8895 17.209 84.8895 17.9004C84.8895 18.5098 84.6844 19.0215 84.2742 19.4355C83.868 19.8496 83.2879 20.0879 82.534 20.1504V20.1621C82.9324 20.459 83.1961 20.6855 83.325 20.8418C83.4539 20.9941 83.5984 21.2012 83.7586 21.4629L85.0828 23.6133C85.243 23.8711 85.2078 24 84.9773 24H84.3094C84.1258 24 83.9891 23.9238 83.8992 23.7715L82.6805 21.6797C82.5047 21.3789 82.2527 21.084 81.9246 20.7949C81.5965 20.5059 81.1883 20.3613 80.7 20.3613H79.6805V23.6777C79.6805 23.8926 79.5828 24 79.3875 24H78.8484ZM79.6805 19.4004H81.3738C82.1355 19.4004 82.7215 19.3008 83.1316 19.1016C83.5418 18.8984 83.7469 18.4746 83.7469 17.8301C83.7469 17.3379 83.5594 17.0039 83.1844 16.8281C82.8094 16.6484 82.2996 16.5586 81.6551 16.5586H79.6805V19.4004Z" fill="#525252"/>
</svg>
